<mxfile host="65bd71144e">
    <diagram id="mEIaSA3Hl4upyT5vSWkh" name="Page-1">
        <mxGraphModel dx="861" dy="604" grid="1" gridSize="10" guides="1" tooltips="1" connect="1" arrows="1" fold="1" page="1" pageScale="1" pageWidth="850" pageHeight="1100" math="0" shadow="0">
            <root>
                <mxCell id="0"/>
                <mxCell id="1" parent="0"/>
                <mxCell id="4" value="Mobile View" style="html=1;fontSize=18;" vertex="1" parent="1">
                    <mxGeometry x="190" y="105" width="460" height="80" as="geometry"/>
                </mxCell>
                <mxCell id="6" value="Controller" style="html=1;fontSize=18;" vertex="1" parent="1">
                    <mxGeometry x="190" y="300" width="450" height="70" as="geometry"/>
                </mxCell>
                <mxCell id="7" value="Model" style="verticalAlign=top;align=left;spacingTop=8;spacingLeft=2;spacingRight=12;shape=cube;size=10;direction=south;fontStyle=4;html=1;fontSize=18;" vertex="1" parent="1">
                    <mxGeometry x="190" y="410" width="460" height="210" as="geometry"/>
                </mxCell>
                <mxCell id="8" style="edgeStyle=none;html=1;entryX=0.5;entryY=0;entryDx=0;entryDy=0;fontSize=18;exitX=0;exitY=0.5;exitDx=0;exitDy=0;" edge="1" parent="1" source="10" target="11">
                    <mxGeometry relative="1" as="geometry">
                        <Array as="points">
                            <mxPoint x="290" y="465"/>
                        </Array>
                    </mxGeometry>
                </mxCell>
                <mxCell id="9" style="edgeStyle=none;html=1;entryX=0.5;entryY=0;entryDx=0;entryDy=0;fontSize=18;exitX=1;exitY=0.5;exitDx=0;exitDy=0;" edge="1" parent="1" source="10" target="12">
                    <mxGeometry relative="1" as="geometry">
                        <Array as="points">
                            <mxPoint x="555" y="465"/>
                        </Array>
                    </mxGeometry>
                </mxCell>
                <mxCell id="10" value="Services" style="html=1;fontSize=18;" vertex="1" parent="1">
                    <mxGeometry x="350" y="440" width="140" height="50" as="geometry"/>
                </mxCell>
                <mxCell id="11" value="Commands" style="html=1;fontSize=18;" vertex="1" parent="1">
                    <mxGeometry x="230" y="525" width="120" height="50" as="geometry"/>
                </mxCell>
                <mxCell id="12" value="Queries" style="html=1;fontSize=18;" vertex="1" parent="1">
                    <mxGeometry x="490" y="520" width="130" height="50" as="geometry"/>
                </mxCell>
                <mxCell id="19" value="" style="shape=doubleArrow;direction=south;whiteSpace=wrap;html=1;fontSize=18;" vertex="1" parent="1">
                    <mxGeometry x="400" y="370" width="40" height="70" as="geometry"/>
                </mxCell>
                <mxCell id="20" value="" style="shape=doubleArrow;direction=south;whiteSpace=wrap;html=1;fontSize=18;" vertex="1" parent="1">
                    <mxGeometry x="395" y="185" width="40" height="115" as="geometry"/>
                </mxCell>
            </root>
        </mxGraphModel>
    </diagram>
</mxfile>